# 3ds Max Wavefront OBJ Exporter v0.97b - (c)2007 guruware
# File Created: 16.10.2017 01:15:12

mtllib 40meters.mtl

#
# object Plane001
#

v  -20.000000 20.000000 0.000000
v  -20.000000 -20.000000 0.000000
v  20.000000 -20.000000 0.000000
v  20.000000 20.000000 0.000000
# 4 vertices

vn 0.000000 0.000000 1.000000
# 1 vertex normals

vt 0.000000 1.000000 0.000000
vt 0.000000 0.000000 0.000000
vt 1.000000 0.000000 0.000000
vt 1.000000 1.000000 0.000000
# 4 texture coords

g Plane001
usemtl wire_006135058
s 1
f 1/1/1 2/2/1 3/3/1 4/4/1 
# 1 polygons

