# 3ds Max Wavefront OBJ Exporter v0.97b - (c)2007 guruware
# File Created: 14.10.2017 01:59:31

mtllib LOD sleepbag_1.mtl

#
# object LOD_sleepbag_1
#

v  0.0998 0.0694 -0.3668
v  -0.8474 0.1304 0.0105
v  1.0179 0.0343 0.0365
v  0.8885 0.0387 -0.3176
v  0.8965 -0.0886 -0.3207
v  0.0209 -0.0762 -0.4266
v  0.0576 0.0163 -0.4148
v  0.9047 -0.0245 -0.3335
v  0.0394 -0.1099 -0.3697
v  0.8660 -0.1163 -0.2798
v  -0.7182 0.1182 -0.3701
v  -0.8186 0.1215 -0.2006
v  0.0072 -0.1143 -0.5861
v  -0.6759 -0.0979 -0.6226
v  -0.6504 -0.0054 -0.5496
v  -0.6364 0.0853 -0.4640
v  -0.9603 -0.1056 -0.5063
v  -0.8356 -0.0623 -0.4049
v  -0.7888 0.1029 -0.3829
v  -1.1018 -0.1118 -0.2593
v  -0.9249 -0.0741 -0.1999
v  -0.8646 0.0724 -0.2051
v  -1.1261 -0.0867 0.0085
v  -0.9919 -0.0409 0.0044
v  -0.9055 0.0747 0.0033
v  -0.9529 -0.0652 0.2220
v  -1.0886 -0.1008 0.2977
v  -0.8834 0.0757 0.1894
v  -0.8191 0.1427 0.1713
v  -0.9297 -0.1057 0.4967
v  -0.8777 -0.0328 0.4111
v  -0.8427 0.0985 0.3559
v  -0.7496 0.1335 0.3312
v  -0.7178 -0.1064 0.5407
v  -0.6832 -0.0192 0.4709
v  -0.6640 0.0771 0.4066
v  0.0425 -0.1165 0.5529
v  0.0615 -0.0899 0.4300
v  0.0672 0.0738 0.3631
v  0.0647 0.0076 0.4297
v  0.8427 -0.1170 0.3133
v  0.8603 -0.0787 0.3643
v  0.0692 -0.1171 0.3833
v  0.8642 0.0369 0.3432
v  0.8887 -0.0218 0.3766
v  0.9602 -0.1144 0.1978
v  0.9988 -0.0779 0.2311
v  1.0133 -0.0175 0.2369
v  0.9967 0.0269 0.2172
v  1.0312 -0.1130 0.0424
v  1.0682 -0.0697 0.0510
v  1.0549 -0.0052 0.0421
v  0.9718 -0.1098 -0.1420
v  1.0204 -0.0790 -0.1615
v  1.0252 -0.0204 -0.1696
v  1.0226 0.0400 -0.1568
# 56 vertices

vn 0.0584 0.8905 -0.4512
vn -0.3818 0.9236 -0.0338
vn 0.4549 0.8905 -0.0001
vn 0.3281 0.7356 -0.5927
vn 0.4132 -0.5607 -0.7175
vn 0.1413 0.1602 -0.9769
vn 0.0846 0.3822 -0.9202
vn 0.5034 0.0427 -0.8630
vn 0.0500 -0.8525 -0.5203
vn 0.2285 -0.8765 -0.4237
vn -0.0452 0.9759 -0.2134
vn -0.4183 0.9010 -0.1152
vn 0.1393 0.9426 -0.3036
vn -0.2360 0.7249 -0.6472
vn -0.2099 0.6512 -0.7293
vn 0.0004 0.8297 -0.5582
vn -0.1934 0.9656 -0.1739
vn -0.5373 0.7522 -0.3814
vn -0.5611 0.6961 -0.4478
vn -0.1950 0.9771 -0.0856
vn -0.5800 0.7870 -0.2101
vn -0.8277 0.5143 -0.2246
vn -0.2685 0.9628 -0.0293
vn -0.5808 0.8102 -0.0794
vn -0.7672 0.6376 -0.0701
vn -0.5885 0.7989 0.1245
vn -0.2911 0.9525 0.0895
vn -0.7634 0.6279 0.1517
vn -0.3479 0.9335 0.0865
vn -0.2986 0.8087 0.5068
vn -0.4671 0.7018 0.5379
vn -0.5356 0.7184 0.4439
vn -0.1196 0.9368 0.3287
vn -0.1271 0.6797 0.7224
vn -0.1069 0.6001 0.7927
vn -0.0214 0.6949 0.7187
vn 0.0965 0.9552 0.2796
vn 0.1050 0.0427 0.9936
vn 0.0472 0.9140 0.4030
vn 0.0575 0.3838 0.9216
vn 0.2534 -0.8163 0.5191
vn 0.2872 -0.5739 0.7669
vn 0.0539 -0.8572 0.5122
vn 0.2357 0.8321 0.5021
vn 0.4569 0.0942 0.8845
vn 0.5197 -0.7971 0.3073
vn 0.7362 -0.5334 0.4166
vn 0.8795 0.1125 0.4625
vn 0.5633 0.7797 0.2735
vn 0.7309 -0.6790 0.0694
vn 0.9679 -0.2296 0.1019
vn 0.9081 0.4182 0.0198
vn 0.4519 -0.8622 -0.2290
vn 0.7954 -0.5011 -0.3409
vn 0.9220 0.0250 -0.3864
vn 0.6929 0.6924 -0.2013
# 56 vertex normals

vt 0.9173 0.2788 0.0000
vt 0.7128 0.5447 0.0000
vt 0.2458 0.7196 0.0000
vt 0.8518 0.1336 0.0000
vt 0.9737 0.2817 0.0000
vt 0.7341 0.6423 0.0000
vt 0.7136 0.5715 0.0000
vt 0.9457 0.2788 0.0000
vt 0.9986 0.2864 0.0000
vt 0.7682 0.6506 0.0000
vt 0.4049 0.8015 0.0000
vt 0.3225 0.7786 0.0000
vt 0.7923 0.7497 0.0000
vt 0.4993 0.9277 0.0000
vt 0.4755 0.8739 0.0000
vt 0.4588 0.8129 0.0000
vt 0.3451 0.9864 0.0000
vt 0.3725 0.8993 0.0000
vt 0.3869 0.8222 0.0000
vt 0.2211 0.9530 0.0000
vt 0.2647 0.8655 0.0000
vt 0.3058 0.8037 0.0000
vt 0.1144 0.8568 0.0000
vt 0.1701 0.8032 0.0000
vt 0.2215 0.7501 0.0000
vt 0.0960 0.7118 0.0000
vt 0.0115 0.7288 0.0000
vt 0.1672 0.6799 0.0000
vt 0.2040 0.6590 0.0000
vt 0.0134 0.5958 0.0000
vt 0.0847 0.6102 0.0000
vt 0.1391 0.6094 0.0000
vt 0.1757 0.5876 0.0000
vt 0.0599 0.4808 0.0000
vt 0.1169 0.5045 0.0000
vt 0.1680 0.5322 0.0000
vt 0.3303 0.1766 0.0000
vt 0.3959 0.2278 0.0000
vt 0.4549 0.3008 0.0000
vt 0.4257 0.2657 0.0000
vt 0.3867 0.2019 0.0000
vt 0.7007 0.0094 0.0000
vt 0.7042 0.0374 0.0000
vt 0.7154 0.0856 0.0000
vt 0.7149 0.0579 0.0000
vt 0.8064 0.0108 0.0000
vt 0.7949 0.0407 0.0000
vt 0.7899 0.0669 0.0000
vt 0.7891 0.0871 0.0000
vt 0.9059 0.0679 0.0000
vt 0.8835 0.0886 0.0000
vt 0.8664 0.1149 0.0000
vt 0.9842 0.1699 0.0000
vt 0.9539 0.1791 0.0000
vt 0.9303 0.1905 0.0000
vt 0.9064 0.1945 0.0000
# 56 texture coords

g LOD_sleepbag_1
usemtl defaultMat
s 1
f 1/2/1 2/3/2 3/4/3 4/1/4 
f 5/5/5 6/6/6 7/7/7 8/8/8 
f 9/10/9 6/6/6 5/5/5 10/9/10 
f 8/8/8 7/7/7 1/2/1 4/1/4 
f 2/3/2 1/2/1 11/11/11 12/12/12 
f 13/13/13 14/14/14 15/15/15 6/6/6 
f 16/16/16 11/11/11 1/2/1 7/7/7 
f 6/6/6 15/15/15 16/16/16 7/7/7 
f 14/14/14 17/17/17 18/18/18 15/15/15 
f 11/11/11 16/16/16 19/19/19 
f 15/15/15 18/18/18 19/19/19 16/16/16 
f 20/20/20 21/21/21 18/18/18 17/17/17 
f 19/19/19 22/22/22 12/12/12 11/11/11 
f 18/18/18 21/21/21 22/22/22 19/19/19 
f 23/23/23 24/24/24 21/21/21 20/20/20 
f 25/25/25 22/22/22 21/21/21 24/24/24 
f 22/22/22 25/25/25 2/3/2 12/12/12 
f 26/26/26 24/24/24 23/23/23 27/27/27 
f 28/28/28 25/25/25 24/24/24 26/26/26 
f 28/28/28 29/29/29 2/3/2 25/25/25 
f 27/27/27 30/30/30 31/31/31 26/26/26 
f 32/32/32 33/33/33 29/29/29 28/28/28 
f 26/26/26 31/31/31 32/32/32 28/28/28 
f 34/34/34 35/35/35 31/31/31 30/30/30 
f 35/35/35 36/36/36 32/32/32 31/31/31 
f 33/33/33 32/32/32 36/36/36 
f 35/35/35 34/34/34 37/37/37 38/38/38 
f 33/33/33 39/39/39 2/3/2 29/29/29 
f 39/39/39 33/33/33 36/36/36 40/40/40 
f 38/38/38 40/40/40 36/36/36 35/35/35 
f 41/42/41 42/43/42 38/38/38 43/41/43 
f 3/4/3 2/3/2 39/39/39 44/44/44 
f 40/40/40 45/45/45 44/44/44 39/39/39 
f 40/40/40 38/38/38 42/43/42 45/45/45 
f 41/42/41 46/46/46 47/47/47 42/43/42 
f 48/48/48 49/49/49 44/44/44 45/45/45 
f 47/47/47 48/48/48 45/45/45 42/43/42 
f 3/4/3 44/44/44 49/49/49 
f 46/46/46 50/50/50 51/51/51 47/47/47 
f 52/52/52 3/4/3 49/49/49 48/48/48 
f 51/51/51 52/52/52 48/48/48 47/47/47 
f 50/50/50 53/53/53 54/54/54 51/51/51 
f 52/52/52 51/51/51 54/54/54 55/55/55 
f 52/52/52 55/55/55 56/56/56 3/4/3 
f 56/56/56 4/1/4 3/4/3 
f 55/55/55 8/8/8 4/1/4 56/56/56 
f 5/5/5 8/8/8 55/55/55 54/54/54 
f 53/53/53 10/9/10 5/5/5 54/54/54 
# 44 polygons - 4 triangles

