# 3ds Max Wavefront OBJ Exporter v0.97b - (c)2007 guruware
# File Created: 12.10.2017 05:55:38

mtllib Rails_low.mtl

#
# object Lowpoly
#

v  1.4773 -0.1180 3.0437
v  1.4773 -0.1180 -3.3798
v  0.7338 -0.2607 -3.3798
v  0.7338 -0.2607 3.0437
v  3.1895 -0.2461 -3.3798
v  2.4070 -0.0757 -3.3798
v  2.4070 -0.0757 3.0437
v  3.1895 -0.2461 3.0437
v  1.7123 -0.1047 3.0437
v  1.7123 -0.0777 3.0437
v  1.7123 -0.0777 -3.3798
v  1.7123 -0.1047 -3.3798
v  1.8007 0.2597 3.0437
v  1.8007 0.3369 3.0437
v  1.8007 0.3369 -3.3798
v  1.8007 0.2597 -3.3798
v  1.8579 0.2507 3.0437
v  1.8097 0.2507 3.0437
v  1.8097 0.2507 -3.3798
v  1.8579 0.2507 -3.3798
v  1.8678 0.2198 3.0437
v  1.8678 0.2198 -3.3798
v  1.8678 0.0289 3.0437
v  1.8678 0.0289 -3.3798
v  1.8583 -0.0206 3.0437
v  1.8583 -0.0206 -3.3798
v  1.8097 0.3459 3.0437
v  1.8097 0.3459 -3.3798
v  1.9910 0.3459 3.0437
v  1.9910 0.3459 -3.3798
v  2.0884 -0.0370 3.0437
v  2.0884 -0.1035 3.0437
v  2.0884 -0.1035 -3.3798
v  2.0884 -0.0370 -3.3798
v  2.0000 0.3369 3.0437
v  2.0000 0.2597 3.0437
v  2.0000 0.2597 -3.3798
v  2.0000 0.3369 -3.3798
v  1.9910 0.2507 3.0437
v  1.9428 0.2507 3.0437
v  1.9428 0.2507 -3.3798
v  1.9910 0.2507 -3.3798
v  1.9329 0.2198 3.0437
v  1.9329 0.2198 -3.3798
v  1.9329 0.0289 3.0437
v  1.9329 0.0289 -3.3798
v  1.9424 -0.0105 3.0437
v  1.9424 -0.0105 -3.3798
v  3.1895 -0.3459 3.0437
v  3.1895 -0.3459 -3.3798
v  -1.4773 -0.1180 3.0437
v  -0.7338 -0.2607 3.0437
v  -0.7338 -0.2607 -3.3798
v  -1.4773 -0.1180 -3.3798
v  -3.1895 -0.2461 -3.3798
v  -3.1895 -0.2461 3.0437
v  -2.4070 -0.0757 3.0437
v  -2.4070 -0.0757 -3.3798
v  -1.7123 -0.1047 3.0437
v  -1.7123 -0.1047 -3.3798
v  -1.7123 -0.0777 -3.3798
v  -1.7123 -0.0777 3.0437
v  -1.8007 0.2597 3.0437
v  -1.8007 0.2597 -3.3798
v  -1.8007 0.3369 -3.3798
v  -1.8007 0.3369 3.0437
v  -1.8579 0.2507 3.0437
v  -1.8579 0.2507 -3.3798
v  -1.8097 0.2507 -3.3798
v  -1.8097 0.2507 3.0437
v  -1.8678 0.2198 3.0437
v  -1.8678 0.2198 -3.3798
v  -1.8678 0.0289 3.0437
v  -1.8678 0.0289 -3.3798
v  -1.8583 -0.0206 3.0437
v  -1.8583 -0.0206 -3.3798
v  -1.8097 0.3459 -3.3798
v  -1.8097 0.3459 3.0437
v  -1.9910 0.3459 -3.3798
v  -1.9910 0.3459 3.0437
v  -2.0884 -0.0370 3.0437
v  -2.0884 -0.0370 -3.3798
v  -2.0884 -0.1035 -3.3798
v  -2.0884 -0.1035 3.0437
v  -2.0000 0.3369 3.0437
v  -2.0000 0.3369 -3.3798
v  -2.0000 0.2597 -3.3798
v  -2.0000 0.2597 3.0437
v  -1.9910 0.2507 3.0437
v  -1.9910 0.2507 -3.3798
v  -1.9428 0.2507 -3.3798
v  -1.9428 0.2507 3.0437
v  -1.9329 0.2198 -3.3798
v  -1.9329 0.2198 3.0437
v  -1.9329 0.0289 -3.3798
v  -1.9329 0.0289 3.0437
v  -1.9424 -0.0105 -3.3798
v  -1.9424 -0.0105 3.0437
v  -3.1895 -0.3459 -3.3798
v  -3.1895 -0.3459 3.0437
# 100 vertices

vn -0.1173 0.9931 0.0000
vn -0.0947 0.9955 0.0000
vn 0.2128 0.9771 0.0000
vn 0.0844 0.9964 0.0000
vn -1.0000 0.0000 -0.0000
vn 0.0000 -1.0000 -0.0000
vn -0.9879 -0.1549 -0.0000
vn -0.9520 -0.3060 -0.0000
vn -0.9955 0.0950 0.0000
vn -0.9819 0.1892 0.0000
vn -0.3645 0.9312 0.0000
vn -0.7071 0.7071 0.0000
vn -0.3827 0.9239 0.0000
vn -0.7071 -0.7071 -0.0000
vn 0.3827 0.9239 0.0000
vn 1.0000 0.0000 -0.0000
vn 0.3827 -0.9239 -0.0000
vn 0.9520 -0.3060 -0.0000
vn 0.9879 -0.1549 -0.0000
vn 0.9930 0.1182 0.0000
vn 0.9720 0.2348 0.0000
vn 0.1782 0.9840 0.0000
vn 0.7071 0.7071 0.0000
vn 0.7071 -0.7071 -0.0000
vn 0.1173 0.9931 0.0000
vn 0.0947 0.9955 0.0000
vn -0.2128 0.9771 0.0000
vn -0.0844 0.9964 0.0000
vn 0.9955 0.0950 0.0000
vn 0.9819 0.1892 0.0000
vn 0.3645 0.9312 0.0000
vn -0.3827 -0.9239 -0.0000
vn -0.9930 0.1182 0.0000
vn -0.9720 0.2348 0.0000
vn -0.1782 0.9840 0.0000
# 35 vertex normals

vt 0.6081 0.0139 0.0000
vt 0.6081 0.8180 0.0000
vt 0.5042 0.8180 0.0000
vt 0.5042 0.0139 0.0000
vt 0.8046 0.8180 0.0000
vt 0.7050 0.8180 0.0000
vt 0.7050 0.0139 0.0000
vt 0.8046 0.0139 0.0000
vt 0.8212 0.8248 0.0000
vt 0.8212 0.8281 0.0000
vt 0.0056 0.8281 0.0000
vt 0.0056 0.8248 0.0000
vt 0.8212 0.8880 0.0000
vt 0.8212 0.8974 0.0000
vt 0.0056 0.8974 0.0000
vt 0.0056 0.8880 0.0000
vt 0.8212 0.8806 0.0000
vt 0.8212 0.8864 0.0000
vt 0.0056 0.8864 0.0000
vt 0.0056 0.8806 0.0000
vt 0.8212 0.8766 0.0000
vt 0.0056 0.8766 0.0000
vt 0.8212 0.8534 0.0000
vt 0.0056 0.8534 0.0000
vt 0.8212 0.8472 0.0000
vt 0.0056 0.8472 0.0000
vt 0.8212 0.8990 0.0000
vt 0.0056 0.8990 0.0000
vt 0.8212 0.9210 0.0000
vt 0.0056 0.9210 0.0000
vt 0.8212 0.9897 0.0000
vt 0.8212 0.9978 0.0000
vt 0.0056 0.9978 0.0000
vt 0.0056 0.9897 0.0000
vt 0.8212 0.9226 0.0000
vt 0.8212 0.9320 0.0000
vt 0.0056 0.9320 0.0000
vt 0.0056 0.9226 0.0000
vt 0.8212 0.9335 0.0000
vt 0.8212 0.9394 0.0000
vt 0.0056 0.9394 0.0000
vt 0.0056 0.9335 0.0000
vt 0.8212 0.9434 0.0000
vt 0.0056 0.9434 0.0000
vt 0.8212 0.9666 0.0000
vt 0.0056 0.9666 0.0000
vt 0.8212 0.9716 0.0000
vt 0.0056 0.9716 0.0000
vt 0.8144 0.0139 0.0000
vt 0.8144 0.8180 0.0000
vt 0.2186 0.0139 0.0000
vt 0.3205 0.0139 0.0000
vt 0.3205 0.8180 0.0000
vt 0.2186 0.8180 0.0000
vt 0.0196 0.8180 0.0000
vt 0.0196 0.0139 0.0000
vt 0.1227 0.0139 0.0000
vt 0.1227 0.8180 0.0000
vt 0.9966 0.0009 0.0000
vt 0.9966 0.8172 0.0000
vt 0.9932 0.8172 0.0000
vt 0.9932 0.0009 0.0000
vt 0.9309 0.0009 0.0000
vt 0.9309 0.8172 0.0000
vt 0.9211 0.8172 0.0000
vt 0.9211 0.0009 0.0000
vt 0.9386 0.0009 0.0000
vt 0.9386 0.8172 0.0000
vt 0.9325 0.8172 0.0000
vt 0.9325 0.0009 0.0000
vt 0.9428 0.0009 0.0000
vt 0.9428 0.8172 0.0000
vt 0.9670 0.0009 0.0000
vt 0.9670 0.8172 0.0000
vt 0.9733 0.0009 0.0000
vt 0.9733 0.8172 0.0000
vt 0.9195 0.8172 0.0000
vt 0.9195 0.0009 0.0000
vt 0.8965 0.8172 0.0000
vt 0.8965 0.0009 0.0000
vt 0.8252 0.0009 0.0000
vt 0.8252 0.8172 0.0000
vt 0.8167 0.8172 0.0000
vt 0.8167 0.0009 0.0000
vt 0.8949 0.0009 0.0000
vt 0.8949 0.8172 0.0000
vt 0.8852 0.8172 0.0000
vt 0.8852 0.0009 0.0000
vt 0.8835 0.0009 0.0000
vt 0.8835 0.8172 0.0000
vt 0.8774 0.8172 0.0000
vt 0.8774 0.0009 0.0000
vt 0.8733 0.8172 0.0000
vt 0.8733 0.0009 0.0000
vt 0.8491 0.8172 0.0000
vt 0.8491 0.0009 0.0000
vt 0.8440 0.8172 0.0000
vt 0.8440 0.0009 0.0000
vt 0.0030 0.8180 0.0000
vt 0.0030 0.0139 0.0000
# 100 texture coords

g Lowpoly
usemtl Material__24
s 4
f 1/1/1 2/2/1 3/3/2 4/4/2 
f 5/5/3 6/6/4 7/7/4 8/8/3 
f 6/6/4 2/2/1 1/1/1 7/7/4 
s 1
f 9/9/5 10/10/5 11/11/5 12/12/5 
s 2
f 13/13/5 14/14/5 15/15/5 16/16/5 
s 1
f 17/17/6 18/18/6 19/19/6 20/20/6 
s 2
f 21/21/7 17/17/8 20/20/8 22/22/7 
f 23/23/9 21/21/7 22/22/7 24/24/9 
f 25/25/10 23/23/9 24/24/9 26/26/10 
s 4
f 10/10/11 25/25/11 26/26/11 11/11/11 
s 1
f 14/14/12 27/27/13 28/28/13 15/15/12 
s 4
f 18/18/14 13/13/14 16/16/14 19/19/14 
s 1
f 29/29/15 30/30/15 28/28/13 27/27/13 
f 31/31/16 32/32/16 33/33/16 34/34/16 
s 2
f 35/35/16 36/36/16 37/37/16 38/38/16 
s 1
f 39/39/17 40/40/6 41/41/6 42/42/17 
s 2
f 40/40/18 43/43/19 44/44/19 41/41/18 
f 43/43/19 45/45/20 46/46/20 44/44/19 
f 45/45/20 47/47/21 48/48/21 46/46/20 
s 4
f 47/47/22 31/31/22 34/34/22 48/48/22 
s 1
f 29/29/15 35/35/23 38/38/23 30/30/15 
f 36/36/24 39/39/17 42/42/17 37/37/24 
s 64
f 8/8/16 49/49/16 50/50/16 5/5/16 
s 4
f 51/51/25 52/52/26 53/53/26 54/54/25 
f 55/55/27 56/56/27 57/57/28 58/58/28 
f 58/58/28 57/57/28 51/51/25 54/54/25 
s 1
f 59/59/16 60/60/16 61/61/16 62/62/16 
s 2
f 63/63/16 64/64/16 65/65/16 66/66/16 
s 1
f 67/67/6 68/68/6 69/69/6 70/70/6 
s 2
f 71/71/19 72/72/19 68/68/18 67/67/18 
f 73/73/29 74/74/29 72/72/19 71/71/19 
f 75/75/30 76/76/30 74/74/29 73/73/29 
s 4
f 62/62/31 61/61/31 76/76/31 75/75/31 
s 1
f 66/66/23 65/65/23 77/77/15 78/78/15 
s 4
f 70/70/24 69/69/24 64/64/24 63/63/24 
s 1
f 78/78/15 77/77/15 79/79/13 80/80/13 
f 81/81/5 82/82/5 83/83/5 84/84/5 
s 2
f 85/85/5 86/86/5 87/87/5 88/88/5 
s 1
f 89/89/32 90/90/32 91/91/6 92/92/6 
s 2
f 92/92/8 91/91/8 93/93/7 94/94/7 
f 94/94/7 93/93/7 95/95/33 96/96/33 
f 96/96/33 95/95/33 97/97/34 98/98/34 
s 4
f 98/98/35 97/97/35 82/82/35 81/81/35 
s 1
f 80/80/13 79/79/13 86/86/12 85/85/12 
f 88/88/14 87/87/14 90/90/32 89/89/32 
s 64
f 56/56/5 55/55/5 99/99/5 100/100/5 
s 4
f 52/52/26 4/4/2 3/3/2 53/53/26 
# 47 polygons

