# 3ds Max Wavefront OBJ Exporter v0.97b - (c)2007 guruware
# File Created: 08.09.2017 00:14:56

mtllib Log.mtl

#
# object Cylinder001
#

v  241.8436 -0.6780 -1118.3271
v  209.4426 120.2438 -1118.3271
v  198.0354 120.2439 -429.6749
v  241.8436 -0.6779 -429.6749
v  120.9217 208.7647 -1118.3271
v  120.9217 190.3001 -429.6749
v  -0.0000 226.7374 -1118.3271
v  -0.0000 208.2729 -429.6749
v  -120.9218 208.7646 -1118.3271
v  -120.9218 168.6962 -429.6749
v  -209.4427 120.2438 -1118.3271
v  -209.4427 120.2438 -429.6749
v  -241.8436 -0.6780 -1118.3271
v  -224.8355 -0.6780 -429.6749
v  -0.0000 9.9358 -1118.3271
v  -0.0000 16.4002 -429.6749
v  198.0354 120.2439 429.6752
v  241.8436 -0.6779 429.6752
v  120.9217 190.3002 429.6752
v  -0.0000 208.2729 429.6752
v  -120.9218 190.3002 429.6752
v  -209.4427 120.2439 429.6752
v  -226.7501 -0.6779 429.6752
v  -0.0000 17.7851 429.6752
v  209.4426 120.2439 1118.3271
v  241.8436 -0.6779 1118.3271
v  100.9336 181.4164 1118.3271
v  -0.0000 211.9453 1118.3271
v  -120.9218 185.1489 1118.3271
v  -211.9996 120.2439 1118.3271
v  -241.8436 -0.6779 1118.3271
v  -0.0000 2.3292 1118.3271
# 32 vertices

vn 0.9632 0.2685 0.0141
vn 0.8654 0.5007 0.0177
vn 0.8317 0.5553 0.0034
vn 0.9402 0.3406 -0.0000
vn 0.4475 0.8940 0.0240
vn 0.4304 0.9026 0.0101
vn -0.0097 0.9991 0.0407
vn -0.0807 0.9967 0.0078
vn -0.4334 0.9006 0.0331
vn -0.3970 0.9177 0.0139
vn -0.8697 0.4935 0.0110
vn -0.8306 0.5567 0.0121
vn -0.9657 0.2587 0.0238
vn -0.9910 0.1339 0.0003
vn 0.0503 -0.9987 0.0071
vn 0.0438 -0.9990 0.0094
vn 0.0723 -0.9974 0.0011
vn 0.0762 -0.9971 -0.0003
vn -0.0496 -0.9988 0.0020
vn -0.0438 -0.9990 0.0000
vn -0.0676 -0.9977 0.0037
vn -0.0709 -0.9975 0.0048
vn 0.8267 0.5626 0.0025
vn 0.9418 0.3360 -0.0069
vn 0.4331 0.9013 0.0070
vn -0.0020 1.0000 0.0002
vn -0.3987 0.9171 -0.0041
vn -0.8638 0.5037 -0.0108
vn -0.9900 0.1410 -0.0110
vn 0.0807 -0.9967 -0.0110
vn 0.0738 -0.9972 -0.0087
vn -0.0756 -0.9971 0.0007
vn -0.0693 -0.9976 -0.0016
vn 0.7887 0.6148 -0.0054
vn 0.9659 0.2588 -0.0000
vn 0.4010 0.9160 0.0083
vn 0.0296 0.9995 0.0065
vn -0.4032 0.9151 0.0012
vn -0.8289 0.5595 0.0009
vn -0.9735 0.2288 -0.0056
vn 0.0264 -0.9996 -0.0043
vn 0.0124 -0.9999 0.0003
vn -0.0262 -0.9995 -0.0176
vn -0.0124 -0.9997 -0.0224
vn 0.0000 -0.0000 -1.0000
vn -0.0000 0.0000 1.0000
# 46 vertex normals

vt 0.0200 0.0203 0.0000
vt 0.0726 0.0203 0.0000
vt 0.0759 0.3157 0.0000
vt 0.0203 0.3157 0.0000
vt 0.1243 0.0201 0.0000
vt 0.1215 0.3156 0.0000
vt 0.1747 0.0202 0.0000
vt 0.1750 0.3157 0.0000
vt 0.2249 0.0200 0.0000
vt 0.2304 0.3158 0.0000
vt 0.2761 0.0207 0.0000
vt 0.2743 0.3160 0.0000
vt 0.3287 0.0206 0.0000
vt 0.3270 0.3160 0.0000
vt 0.3598 0.0200 0.0000
vt 0.4635 0.0200 0.0000
vt 0.4635 0.3152 0.0000
vt 0.3671 0.3153 0.0000
vt 0.5672 0.0200 0.0000
vt 0.5672 0.3153 0.0000
vt 0.0758 0.6844 0.0000
vt 0.0205 0.6844 0.0000
vt 0.1207 0.6842 0.0000
vt 0.1733 0.6845 0.0000
vt 0.2258 0.6845 0.0000
vt 0.2744 0.6845 0.0000
vt 0.3282 0.6846 0.0000
vt 0.4635 0.6837 0.0000
vt 0.3598 0.6836 0.0000
vt 0.5672 0.6836 0.0000
vt 0.0739 0.9798 0.0000
vt 0.0205 0.9798 0.0000
vt 0.1266 0.9796 0.0000
vt 0.1732 0.9800 0.0000
vt 0.2274 0.9798 0.0000
vt 0.2750 0.9799 0.0000
vt 0.3282 0.9799 0.0000
vt 0.4635 0.9789 0.0000
vt 0.3597 0.9788 0.0000
vt 0.5673 0.9788 0.0000
vt 0.7746 0.7682 0.0000
vt 0.9343 0.6828 0.0000
vt 0.9591 0.7750 0.0000
vt 0.9556 0.8025 0.0000
vt 0.9309 0.8947 0.0000
vt 0.7712 0.7915 0.0000
vt 0.6095 0.8947 0.0000
vt 0.5868 0.8025 0.0000
vt 0.6790 0.9442 0.0000
vt 0.7712 0.9759 0.0000
vt 0.8482 0.9414 0.0000
vt 0.8668 0.6153 0.0000
vt 0.7746 0.6016 0.0000
vt 0.6824 0.6153 0.0000
vt 0.6149 0.6828 0.0000
vt 0.5902 0.7750 0.0000
# 56 texture coords

g Cylinder001
usemtl Material__25
s 8
f 1/1/1 2/2/2 3/3/3 4/4/4 
f 2/2/2 5/5/5 6/6/6 3/3/3 
f 5/5/5 7/7/7 8/8/8 6/6/6 
f 7/7/7 9/9/9 10/10/10 8/8/8 
f 9/9/9 11/11/11 12/12/12 10/10/10 
f 11/11/11 13/13/13 14/14/14 12/12/12 
s 4
f 13/15/15 15/16/16 16/17/17 14/18/18 
s 2
f 15/16/19 1/19/20 4/20/21 16/17/22 
s 8
f 4/4/4 3/3/3 17/21/23 18/22/24 
f 3/3/3 6/6/6 19/23/25 17/21/23 
f 6/6/6 8/8/8 20/24/26 19/23/25 
f 8/8/8 10/10/10 21/25/27 20/24/26 
f 10/10/10 12/12/12 22/26/28 21/25/27 
f 12/12/12 14/14/14 23/27/29 22/26/28 
s 4
f 14/18/18 16/17/17 24/28/30 23/29/31 
s 2
f 16/17/22 4/20/21 18/30/32 24/28/33 
s 8
f 18/22/24 17/21/23 25/31/34 26/32/35 
f 17/21/23 19/23/25 27/33/36 25/31/34 
f 19/23/25 20/24/26 28/34/37 27/33/36 
f 20/24/26 21/25/27 29/35/38 28/34/37 
f 21/25/27 22/26/28 30/36/39 29/35/38 
f 22/26/28 23/27/29 31/37/40 30/36/39 
s 4
f 23/29/31 24/28/30 32/38/41 31/39/42 
s 2
f 24/28/33 18/30/32 26/40/43 32/38/44 
s 1
f 15/41/45 2/42/45 1/43/45 
f 26/44/46 25/45/46 32/46/46 
f 30/47/46 31/48/46 32/46/46 
f 29/49/46 30/47/46 32/46/46 
f 28/50/46 29/49/46 32/46/46 
f 27/51/46 28/50/46 32/46/46 
f 25/45/46 27/51/46 32/46/46 
f 15/41/45 5/52/45 2/42/45 
f 15/41/45 7/53/45 5/52/45 
f 15/41/45 9/54/45 7/53/45 
f 15/41/45 11/55/45 9/54/45 
f 15/41/45 13/56/45 11/55/45 
# 24 polygons - 12 triangles

