# 3ds Max Wavefront OBJ Exporter v0.97b - (c)2007 guruware
# File Created: 31.08.2017 17:08:24

mtllib Barbwire_fence_last_section.mtl

#
# object Barbwire_fence
#

v  1800.0000 100.8184 -0.2587
v  1800.0000 1600.8184 -0.2584
v  200.0000 1600.8184 -0.2584
v  200.0000 100.8184 -0.2587
v  200.0000 1755.0001 -100.2586
v  0.0000 1755.0001 -100.2586
v  0.0000 1755.0000 99.7414
v  200.0000 1755.0000 99.7414
v  0.0000 0.0001 99.7414
v  200.0000 0.0001 99.7414
v  200.0000 0.0001 -100.2586
v  0.0000 0.0001 -100.2586
v  1800.3730 1755.0002 -100.2587
v  1800.3730 1755.0002 99.7413
v  2000.3730 1755.0002 99.7413
v  2000.3730 1755.0002 -100.2587
v  2000.3730 0.0001 99.7413
v  2000.3730 0.0001 -100.2587
v  1800.3730 0.0004 -100.2587
v  1800.3730 0.0005 99.7413
# 20 vertices

vn 0.0000 0.0000 1.0000
vn 0.0000 1.0000 -0.0000
vn 1.0000 0.0000 -0.0000
vn 0.0000 0.0000 -1.0000
vn -1.0000 0.0000 -0.0000
# 5 vertex normals

vt 0.9915 0.0078 0.0000
vt 0.9915 0.4997 0.0000
vt 0.4667 0.4997 0.0000
vt 0.4667 0.0078 0.0000
vt 0.5439 0.9924 0.0000
vt 0.4658 0.9924 0.0000
vt 0.4658 0.9143 0.0000
vt 0.5439 0.9143 0.0000
vt 0.2324 0.9925 0.0000
vt 0.1201 0.9925 0.0000
vt 0.1201 0.0078 0.0000
vt 0.2324 0.0078 0.0000
vt 0.3446 0.9925 0.0000
vt 0.3446 0.0078 0.0000
vt 0.4568 0.9925 0.0000
vt 0.4568 0.0078 0.0000
vt 0.0079 0.9925 0.0000
vt 0.0079 0.0078 0.0000
# 18 texture coords

g Barbwire_fence
usemtl Material__26
s 1
f 1/1/1 2/2/1 3/3/1 4/4/1 
s 4
f 5/5/2 6/6/2 7/7/2 8/8/2 
s 8
f 8/9/1 7/10/1 9/11/1 10/12/1 
s 16
f 5/13/3 8/9/3 10/12/3 11/14/3 
s 32
f 6/15/4 5/13/4 11/14/4 12/16/4 
s 64
f 7/10/5 6/17/5 12/18/5 9/11/5 
s 4
f 13/5/2 14/6/2 15/7/2 16/8/2 
s 8
f 16/9/3 15/10/3 17/11/3 18/12/3 
s 16
f 13/13/4 16/9/4 18/12/4 19/14/4 
s 32
f 14/15/5 13/13/5 19/14/5 20/16/5 
s 64
f 15/10/1 14/17/1 20/18/1 17/11/1 
# 11 polygons

