# Wavefront Obj file
# 
# verts: 36 uv-s: 36
mtllib terrain_2.mtl

g lp

v -5235.372559 92.414101 847.648926
v -4096.655762 0.000000 847.648926
v -2957.938965 0.000000 847.648926
v -1819.222412 0.000000 847.648926
v -680.505493 0.000000 847.648926
v 458.211182 79.980103 847.648926
v -5235.372559 0.000000 -291.067627
v -4096.655762 0.000000 -291.067627
v -2874.469727 44.471008 -410.926514
v -1819.367676 41.917995 -291.213867
v -680.505493 0.000000 -291.067627
v 458.211182 79.980103 -291.067627
v -5235.372559 33.918499 -1429.784546
v -4096.655762 0.000000 -1429.784546
v -2957.938965 -31.656403 -1429.784546
v -1819.222412 0.000000 -1429.784546
v -680.505493 0.000000 -1429.784546
v 458.211182 0.000000 -1429.784546
v -5235.372559 33.918499 -2568.501709
v -4096.655762 0.000000 -2568.501709
v -2957.938965 0.000000 -2568.501709
v -1819.222412 0.000000 -2568.501709
v -680.505493 0.000000 -2568.501709
v 458.211182 0.000000 -2568.501709
v -5235.372559 0.000000 -3707.218506
v -4096.655762 0.000000 -3707.218506
v -2957.938965 -26.818398 -3707.218506
v -1819.222412 -26.818398 -3707.218506
v -680.505493 0.000000 -3707.218506
v 458.211182 69.180099 -3707.218506
v -5235.372559 125.043701 -4845.934570
v -4096.655762 125.043701 -4845.934570
v -2957.938965 0.000000 -4845.934570
v -1819.222412 0.000000 -4845.934570
v -680.505493 0.000000 -4845.934570
v 458.211182 69.180099 -4845.934570
# 36 positions

vt 0.000000 0.000000
vt 0.200000 0.000000
vt 0.200000 0.200000
vt 0.000000 0.200000
vt 0.400000 0.000000
vt 0.400000 0.200000
vt 0.600000 0.000000
vt 0.600000 0.200000
vt 0.800000 0.000000
vt 0.800000 0.200000
vt 1.000000 0.000000
vt 1.000000 0.200000
vt 0.200000 0.400000
vt 0.000000 0.400000
vt 0.400000 0.400000
vt 0.600000 0.400000
vt 0.800000 0.400000
vt 1.000000 0.400000
vt 0.200000 0.600000
vt 0.000000 0.600000
vt 0.400000 0.600000
vt 0.600000 0.600000
vt 0.800000 0.600000
vt 1.000000 0.600000
vt 0.200000 0.800000
vt 0.000000 0.800000
vt 0.400000 0.800000
vt 0.600000 0.800000
vt 0.800000 0.800000
vt 1.000000 0.800000
vt 0.200000 1.000000
vt 0.000000 1.000000
vt 0.400000 1.000000
vt 0.600000 1.000000
vt 0.800000 1.000000
vt 1.000000 1.000000
# 36 texture coordinates

vn 0.040512 0.998358 -0.040512
vn 0.011353 0.999871 -0.011353
vn 0.006683 0.999930 -0.009749
vn 0.027732 0.999533 -0.012856
vn -0.009722 0.999600 0.026573
vn -0.009166 0.999930 -0.007449
vn 0.008800 0.999592 0.027192
vn 0.007051 0.999971 -0.002830
vn -0.025914 0.999622 0.009197
vn -0.017131 0.999815 -0.008784
vn -0.070064 0.997543 0.000000
vn -0.052592 0.998462 -0.017537
vn 0.012844 0.999916 -0.001549
vn 0.022333 0.999723 0.007445
vn -0.004096 0.999900 -0.013523
vn -0.001448 0.999891 -0.014703
vn -0.004170 0.999902 -0.013373
vn -0.017565 0.999691 -0.017565
vn 0.017586 0.999840 -0.003193
vn 0.022333 0.999723 -0.007445
vn 0.002944 0.999994 -0.001881
vn -0.006419 0.999965 -0.005358
vn -0.010533 0.999934 0.004644
vn -0.015192 0.999769 0.015192
vn 0.023353 0.999026 0.037446
vn 0.007439 0.998848 0.047397
vn 0.019559 0.999715 0.013666
vn -0.005888 0.999983 -0.000000
vn -0.028657 0.999561 0.007595
vn -0.045509 0.998849 0.015174
vn 0.033191 0.995580 0.087857
vn 0.000000 0.994025 0.109155
vn 0.033346 0.998427 0.045083
vn -0.005887 0.999827 0.017660
vn -0.036241 0.999326 0.005883
vn -0.060641 0.998160 0.000000
# 36 normals

usemtl wire_213154229
s 1
f 1/1/1 2/2/2 8/3/3 7/4/4
f 2/2/2 3/5/5 9/6/6 8/3/3
f 3/5/5 4/7/7 10/8/8 9/6/6
f 4/7/7 5/9/9 11/10/10 10/8/8
f 5/9/9 6/11/11 12/12/12 11/10/10
f 7/4/4 8/3/3 14/13/13 13/14/14
f 8/3/3 9/6/6 15/15/15 14/13/13
f 9/6/6 10/8/8 16/16/16 15/15/15
f 10/8/8 11/10/10 17/17/17 16/16/16
f 11/10/10 12/12/12 18/18/18 17/17/17
f 13/14/14 14/13/13 20/19/19 19/20/20
f 14/13/13 15/15/15 21/21/21 20/19/19
f 15/15/15 16/16/16 22/22/22 21/21/21
f 16/16/16 17/17/17 23/23/23 22/22/22
f 17/17/17 18/18/18 24/24/24 23/23/23
f 19/20/20 20/19/19 26/25/25 25/26/26
f 20/19/19 21/21/21 27/27/27 26/25/25
f 21/21/21 22/22/22 28/28/28 27/27/27
f 22/22/22 23/23/23 29/29/29 28/28/28
f 23/23/23 24/24/24 30/30/30 29/29/29
f 25/26/26 26/25/25 32/31/31 31/32/32
f 26/25/25 27/27/27 33/33/33 32/31/31
f 27/27/27 28/28/28 34/34/34 33/33/33
f 28/28/28 29/29/29 35/35/35 34/34/34
f 29/29/29 30/30/30 36/36/36 35/35/35

# 25 faces
